<?xml version="1.0" encoding="UTF-8"?>
<svg xmlns="http://www.w3.org/2000/svg" viewBox="0 0 516 309" fill="none">
<path d="..." fill="currentColor" />
<path d="..." fill="currentColor" />
<path d="M0 0 C6.27 0 12.54 0 19 0 C19 15.84 19 31.68 19 48 C27.58 48 36.16 48 45 48 C45 53.28 45 58.56 45 64 C36.42 64 27.84 64 19 64 C18.67247881 77.3191952 20.29550765 83.70417312 29.40771484 93.31933594 C31.00582875 95.00615227 32.54679565 96.73248791 34.08203125 98.4765625 C39.20811428 104.23521204 44.41427926 109.50660188 50.55078125 114.21875 C52 116 52 116 51.953125 118.32421875 C50.79152978 121.58525452 49.22781115 124.35034882 47.4375 127.3125 C46.79683594 128.38113281 46.15617187 129.44976562 45.49609375 130.55078125 C45.00238281 131.35902344 44.50867188 132.16726562 44 133 C40.05338563 131.43607356 37.58933612 128.71567025 34.8125 125.625 C33.49185547 124.19027344 33.49185547 124.19027344 32.14453125 122.7265625 C29.35826952 119.53667504 26.83139484 116.16216619 24.3034668 112.76708984 C23.88839622 112.2115593 23.47332565 111.65602875 23.04567719 111.08366394 C22.02942591 109.7232081 21.01457114 108.36170928 20 107 C19.98969254 108.28817123 19.97938507 109.57634247 19.96876526 110.90354919 C19.87121426 123.01467463 19.76849805 135.12574659 19.66066074 147.23678493 C19.60538186 153.46390914 19.55195407 159.691038 19.50268555 165.91821289 C19.45511506 171.92231041 19.40277518 177.92634878 19.34705925 183.93037605 C19.32660243 186.22659911 19.307895 188.52283841 19.29092598 190.81908989 C19.26695535 194.02325214 19.23689113 197.2273014 19.20532227 200.43139648 C19.1995668 201.39092728 19.19381134 202.35045807 19.18788147 203.33906555 C19.17809265 204.20709808 19.16830383 205.07513062 19.15821838 205.96946716 C19.15176583 206.72810279 19.14531328 207.48673841 19.1386652 208.268363 C19 210 19 210 18 211 C16.66956375 211.0983721 15.33406656 211.13078592 14 211.1328125 C13.195625 211.13410156 12.39125 211.13539063 11.5625 211.13671875 C10.716875 211.13285156 9.87125 211.12898437 9 211.125 C7.7315625 211.13080078 7.7315625 211.13080078 6.4375 211.13671875 C5.633125 211.13542969 4.82875 211.13414062 4 211.1328125 C3.2575 211.13168457 2.515 211.13055664 1.75 211.12939453 C0 211 0 211 -1 210 C-1.09531163 208.6465941 -1.1218872 207.28826016 -1.12025452 205.9315033 C-1.12162918 205.05505661 -1.12300385 204.17860992 -1.12442017 203.27560425 C-1.11902725 201.82228195 -1.11902725 201.82228195 -1.11352539 200.33959961 C-1.11367142 199.32508224 -1.11381744 198.31056488 -1.1139679 197.26530457 C-1.11326829 193.89429627 -1.10547368 190.52334246 -1.09765625 187.15234375 C-1.09579224 184.82206757 -1.09436826 182.491791 -1.09336853 180.16151428 C-1.08954202 174.01462735 -1.0797106 167.86776387 -1.06866455 161.72088623 C-1.05845329 155.45390134 -1.05387152 149.18691268 -1.04882812 142.91992188 C-1.03808845 130.61327092 -1.02101044 118.30663741 -1 106 C-1.54342041 107.08974121 -2.08684082 108.17948242 -2.64672852 109.30224609 C-3.36992742 110.75099004 -4.09315484 112.19971976 -4.81640625 113.6484375 C-5.17335571 114.36443115 -5.53030518 115.0804248 -5.89807129 115.81811523 C-15.12775806 134.29864565 -25.89743079 151.80973263 -40 167 C-43.66060821 166.41463247 -45.54535164 164.916761 -48.25 162.4375 C-48.95640625 161.79683594 -49.6628125 161.15617188 -50.390625 160.49609375 C-50.92171875 160.00238281 -51.4528125 159.50867188 -52 159 C-50.62427268 156.07166614 -49.03009619 153.54871394 -47.125 150.9375 C-28.36633696 124.22763411 -13.32245105 94.96735314 -3 64 C-15.21 64 -27.42 64 -40 64 C-40 58.72 -40 53.44 -40 48 C-26.8 48 -13.6 48 0 48 C-0.08378906 44.61878906 -0.16757812 41.23757812 -0.25390625 37.75390625 C-0.33121929 34.49408625 -0.40678464 31.23423013 -0.48217773 27.97436523 C-0.5356848 25.70153492 -0.59102056 23.42874692 -0.64819336 21.15600586 C-0.72986216 17.89706551 -0.80504251 14.63803164 -0.87890625 11.37890625 C-0.90594131 10.35599991 -0.93297638 9.33309357 -0.96083069 8.27919006 C-0.98092697 7.33829025 -1.00102325 6.39739044 -1.02172852 5.42797852 C-1.04171402 4.59524918 -1.06169952 3.76251984 -1.08229065 2.90455627 C-1 1 -1 1 0 0 Z " fill="currentColor" transform="translate(297,33)"/>
<path d="M0 0 C5.94 0 11.88 0 18 0 C18 15.84 18 31.68 18 48 C27.1698291 47.96040482 27.1698291 47.96040482 36.33959961 47.90991211 C37.47405518 47.90741455 38.60851074 47.90491699 39.77734375 47.90234375 C41.52905884 47.89448853 41.52905884 47.89448853 43.31616211 47.88647461 C46 48 46 48 47 49 C47 53.62 47 58.24 47 63 C32.645 63.495 32.645 63.495 18 64 C18.02618408 67.89619141 18.05236816 71.79238281 18.0793457 75.80664062 C18.16221179 88.68275955 18.21768558 101.55887443 18.25906086 114.43518829 C18.28481377 122.24176145 18.31990806 130.04808151 18.37719727 137.85449219 C18.42712207 144.66066585 18.4593122 151.46665618 18.47044247 158.27300787 C18.47694605 161.87513274 18.49216906 165.47673322 18.52865028 169.07868958 C18.56910083 173.10542806 18.56994366 177.13126199 18.56762695 181.15820312 C18.58560333 182.34503693 18.60357971 183.53187073 18.62210083 184.75466919 C18.5786941 191.73199177 17.76937522 196.7041906 13 202 C8.52803179 205.91959047 4.51880307 208.13030477 -1.47143555 208.11352539 C-2.82249641 208.11341209 -2.82249641 208.11341209 -4.20085144 208.11329651 C-5.16968765 208.10813522 -6.13852386 208.10297394 -7.13671875 208.09765625 C-8.62858452 208.09553383 -8.62858452 208.09553383 -10.15058899 208.09336853 C-13.32958982 208.08776761 -16.50852043 208.07521496 -19.6875 208.0625 C-21.84179586 208.05748512 -23.99609282 208.05292219 -26.15039062 208.04882812 C-31.43362084 208.03779787 -36.71679851 208.02053262 -42 208 C-42.99 199.585 -42.99 199.585 -44 191 C-41.45925781 190.96261719 -38.91851562 190.92523438 -36.30078125 190.88671875 C-33.83170108 190.84046646 -31.36277028 190.78924639 -28.89379883 190.73754883 C-27.18197762 190.70435831 -25.47004852 190.67630811 -23.75805664 190.65356445 C-21.29266521 190.61990968 -18.82825719 190.56759026 -16.36328125 190.51171875 C-15.60163162 190.50532883 -14.83998199 190.4989389 -14.05525208 190.49235535 C-9.55706444 190.3687551 -6.57606233 189.79279553 -3 187 C-1.7663523 184.5327046 -1.8616203 182.8883109 -1.84178162 180.12789917 C-1.8319928 179.09862305 -1.82220398 178.06934692 -1.81211853 177.00888062 C-1.80636307 175.87528107 -1.8006076 174.74168152 -1.79467773 173.57373047 C-1.78477814 172.38350281 -1.77487854 171.19327515 -1.76467896 169.96697998 C-1.73845795 166.69862028 -1.71660961 163.43026587 -1.69667697 160.16186285 C-1.6748319 156.74786576 -1.64743599 153.33391341 -1.62062073 149.91995239 C-1.5706738 143.45308783 -1.52574241 136.98619846 -1.48259836 130.51928532 C-1.43324306 123.15780177 -1.37831861 115.79636309 -1.32291877 108.43492293 C-1.20906803 93.28999044 -1.10223574 78.14501569 -1 63 C-2.73500008 63.10597 -2.73500008 63.10597 -4.50505066 63.21408081 C-13.44294106 63.74520506 -22.34416596 64.15163492 -31.30078125 64.1328125 C-32.87619942 64.13424759 -32.87619942 64.13424759 -34.48344421 64.13571167 C-36.66173362 64.13638203 -38.84002516 64.13460932 -41.01831055 64.13037109 C-44.35274649 64.12493438 -47.68705209 64.13039109 -51.02148438 64.13671875 C-53.1562503 64.13605914 -55.29101613 64.13478042 -57.42578125 64.1328125 C-58.41532303 64.13483673 -59.40486481 64.13686096 -60.4243927 64.13894653 C-61.34693344 64.13579437 -62.26947418 64.13264221 -63.2199707 64.12939453 C-64.02505569 64.12859894 -64.83014069 64.12780334 -65.65962219 64.12698364 C-68.18325727 63.99005687 -70.53620472 63.55058423 -73 63 C-73.02685412 60.68756208 -73.04632841 58.3750373 -73.0625 56.0625 C-73.07410156 54.77472656 -73.08570313 53.48695312 -73.09765625 52.16015625 C-73 49 -73 49 -72 48 C-69.79132169 47.90567015 -67.57958479 47.88257569 -65.36889648 47.88647461 C-64.67624695 47.88632858 -63.98359741 47.88618256 -63.2699585 47.8860321 C-60.97030554 47.88673126 -58.67073263 47.89452372 -56.37109375 47.90234375 C-54.78068588 47.90420792 -53.19027743 47.90563183 -51.59986877 47.90663147 C-47.4060407 47.91045671 -43.21224705 47.92028705 -39.01843262 47.93133545 C-34.74211086 47.94154943 -30.46578356 47.94612906 -26.18945312 47.95117188 C-17.79295292 47.96190931 -9.39648074 47.97898581 -1 48 C-1.00222061 47.41340103 -1.00444122 46.82680206 -1.00672913 46.22242737 C-1.0287821 40.13974616 -1.04390664 34.05707623 -1.05493164 27.97436523 C-1.05997325 25.70157409 -1.06680637 23.4287862 -1.07543945 21.15600586 C-1.08751261 17.89696449 -1.09322987 14.63796583 -1.09765625 11.37890625 C-1.10281754 10.35599991 -1.10797882 9.33309357 -1.11329651 8.27919006 C-1.11337204 7.33829025 -1.11344757 6.39739044 -1.11352539 5.42797852 C-1.115746 4.59524918 -1.11796661 3.76251984 -1.12025452 2.90455627 C-1 1 -1 1 0 0 Z " fill="currentColor" transform="translate(429,33)"/>
<path d="M0 0 C1.20960661 0.00436926 1.20960661 0.00436926 2.44364971 0.00882679 C3.29388303 0.00797237 4.14411634 0.00711794 5.0201143 0.00623763 C7.89149251 0.00458021 10.76281331 0.01010845 13.63418621 0.01555592 C15.68356872 0.01583776 17.73295134 0.01568012 19.78233379 0.01511341 C25.36474994 0.01482532 30.9471448 0.02072395 36.52955598 0.02768737 C42.35654081 0.03391895 48.18352607 0.03452455 54.01051372 0.03571278 C65.05318376 0.03882667 76.09584394 0.04704084 87.13850963 0.05706227 C99.70661161 0.0682216 112.27471405 0.0737334 124.84281975 0.0787577 C150.70418909 0.08922341 176.56554899 0.10702431 202.42691082 0.12908131 C202.42691082 5.40908131 202.42691082 10.68908131 202.42691082 16.12908131 C177.09623798 16.28303697 151.76553895 16.43128835 126.43478912 16.57204491 C114.67245976 16.63754771 102.9101482 16.70504167 91.14785808 16.77727467 C80.89209934 16.84025085 70.63632681 16.89943853 60.38052046 16.95413685 C54.95359344 16.98321154 49.52669172 17.01414261 44.09980243 17.04961544 C38.98388405 17.08299563 33.86796194 17.1112809 28.7519936 17.13578755 C26.88203917 17.14561966 25.01209316 17.15725656 23.14216274 17.17091137 C13.17493139 17.24260537 3.35498009 17.13132907 -6.57308918 16.12908131 C-6.59994014 13.6498433 -6.61985466 11.17089291 -6.63558918 8.69158131 C-6.64815754 7.63100514 -6.64815754 7.63100514 -6.66097981 6.54900318 C-6.66962506 4.74214571 -6.6252893 2.93520528 -6.57308918 1.12908131 C-4.78688395 -0.65712392 -2.3784233 0.00651798 0 0 Z " fill="currentColor" transform="translate(23.57308918237686,216.8709186911583)"/>
<path d="M0 0 C1.12856538 -0.00233999 1.12856538 -0.00233999 2.27993006 -0.00472724 C4.81419804 -0.00873255 7.34840668 -0.00554942 9.88267517 -0.00241089 C11.69413285 -0.00376513 13.50559024 -0.00554518 15.31704712 -0.00772095 C20.24659752 -0.01229228 25.17612706 -0.01050703 30.10567784 -0.00734186 C35.25419882 -0.00481711 40.40271797 -0.00715609 45.55123901 -0.00872803 C54.1975283 -0.01054922 62.84380905 -0.00814455 71.49009705 -0.00338745 C81.501214 0.00205679 91.5123106 0.00029113 101.52342707 -0.00521386 C110.10430548 -0.00974436 118.68517774 -0.01039589 127.26605695 -0.00777519 C132.39744776 -0.00621229 137.52882899 -0.00601903 142.66021919 -0.00931168 C147.48231655 -0.01218955 152.30438752 -0.01021626 157.12648201 -0.00441742 C158.90148881 -0.00308944 160.67649781 -0.00348457 162.45150375 -0.00568008 C164.8639399 -0.00839007 167.27629011 -0.00501237 169.6887207 0 C170.40037811 -0.00223072 171.11203551 -0.00446144 171.8452583 -0.00675976 C176.66671855 0.01283366 176.66671855 0.01283366 177.78086853 1.12698364 C177.87996155 3.45858419 177.91057357 5.79328306 177.90586853 8.12698364 C177.90844666 9.40573364 177.91102478 10.68448364 177.91368103 12.00198364 C177.78086853 15.12698364 177.78086853 15.12698364 176.78086853 16.12698364 C174.39248695 16.226854 172.03296688 16.26140771 169.64402771 16.25396729 C168.88842166 16.25552728 168.13281562 16.25708727 167.35431242 16.25869453 C164.80311902 16.2627074 162.25198433 16.25951379 159.70079041 16.25637817 C157.87962814 16.25773209 156.05846615 16.25951196 154.23730469 16.26168823 C149.27670437 16.26626374 144.31612476 16.26447252 139.35552406 16.26130915 C134.17630073 16.25878615 128.99707923 16.26112291 123.81785583 16.26269531 C115.11851176 16.26451719 106.41917616 16.26211023 97.71983337 16.25735474 C87.64682127 16.25191208 77.57382939 16.25367473 67.50081778 16.25918114 C58.86900455 16.26371177 50.23719743 16.26436307 41.6053834 16.26174247 C36.44267857 16.26017942 31.27998327 16.2599867 26.11727905 16.26327896 C21.2648263 16.26615694 16.41239978 16.26418333 11.55994987 16.2583847 C9.77365602 16.25705671 7.98735997 16.25745188 6.20106697 16.25964737 C3.77325079 16.26235735 1.34552001 16.25897964 -1.08229065 16.25396729 C-1.79852112 16.25619801 -2.5147516 16.25842873 -3.25268602 16.26072705 C-8.10498161 16.2411335 -8.10498161 16.2411335 -9.21913147 15.12698364 C-9.29184888 12.7738481 -9.30284015 10.41864696 -9.28163147 8.06448364 C-9.27260803 6.77413208 -9.26358459 5.48378052 -9.25428772 4.15432739 C-9.24268616 3.15530396 -9.23108459 2.15628052 -9.21913147 1.12698364 C-6.25615226 -0.35450596 -3.24822885 -0.01021373 0 0 Z " fill="currentColor" transform="translate(37.21913146972656,50.873016357421875)"/>
<path d="M0 0 C1.31253754 -0.00281982 2.62507507 -0.00563965 3.97738647 -0.00854492 C5.44561781 -0.00660032 6.91384901 -0.00455213 8.38208008 -0.00241089 C9.91753175 -0.00376486 11.45298311 -0.00554477 12.98843384 -0.00772095 C17.17013463 -0.01229573 21.35181087 -0.01050554 25.53351212 -0.00734186 C29.89994627 -0.00481849 34.26637826 -0.00715573 38.6328125 -0.00872803 C45.96688211 -0.01054979 53.30094168 -0.00814324 60.63500977 -0.00338745 C69.12660751 0.00205518 77.61818124 0.00029253 86.1097784 -0.00521386 C93.38703842 -0.00974479 100.66429119 -0.01039563 107.94155216 -0.00777519 C112.29383297 -0.00621231 116.64610248 -0.00601895 120.99838257 -0.00931168 C125.08915715 -0.01219011 129.17990064 -0.01021521 133.27067184 -0.00441742 C134.77638065 -0.00308967 136.28209205 -0.00348419 137.78779984 -0.00568008 C139.83460652 -0.00839098 141.8814189 -0.0043973 143.92822266 0 C145.07639969 0.00037703 146.22457672 0.00075405 147.407547 0.0011425 C149.96411133 0.12698364 149.96411133 0.12698364 150.96411133 1.12698364 C150.96411133 6.07698364 150.96411133 11.02698364 150.96411133 16.12698364 C98.82411133 16.12698364 46.68411133 16.12698364 -7.03588867 16.12698364 C-7.03588867 0.00231037 -7.03588867 0.00231037 0 0 Z " fill="currentColor" transform="translate(50.035888671875,127.87301635742188)"/>
<path d="M0 0 C1.40356445 1.7746582 1.40356445 1.7746582 2.86328125 4.30078125 C3.4140332 5.24590576 3.96478516 6.19103027 4.53222656 7.16479492 C5.1197168 8.2035376 5.70720703 9.24228027 6.3125 10.3125 C6.9219043 11.37380127 7.53130859 12.43510254 8.15917969 13.52856445 C25.1914531 43.48330131 25.1914531 43.48330131 30 56 C27.5664433 57.3410005 25.12864699 58.67294856 22.6875 60 C21.99720703 60.3815625 21.30691406 60.763125 20.59570312 61.15625 C15.33984375 64 15.33984375 64 12 64 C11.64397705 63.2471875 11.2879541 62.494375 10.92114258 61.71875 C3.12421649 45.27949308 -4.95256022 29.10282939 -13.80175781 13.19702148 C-14.91670939 11.15271642 -15.97317836 9.08971919 -17 7 C-14.73272667 5.82592979 -12.46165376 4.66060261 -10.1875 3.5 C-9.22360352 2.99919922 -9.22360352 2.99919922 -8.24023438 2.48828125 C-5.30452301 0.99760916 -3.33873483 0 0 0 Z " fill="currentColor" transform="translate(373,119)"/>
</svg>
