<?xml version="1.0" encoding="UTF-8"?>
<svg version="1.1" xmlns="http://www.w3.org/2000/svg" viewBox="0 0 444 138" width="444" height="138">
<path d="M0 0 C2.19510603 0.25361783 4.38228739 0.57765908 6.5625 0.9375 C8.35880859 1.22947266 8.35880859 1.22947266 10.19140625 1.52734375 C11.11824219 1.68332031 12.04507813 1.83929687 13 2 C14 5 14 5 13 8 C14.30988892 8.03758423 14.30988892 8.03758423 15.64624023 8.07592773 C18.87602552 8.17087709 22.10564154 8.27012029 25.33520508 8.37231445 C26.73489199 8.41571434 28.13463359 8.45738564 29.53442383 8.49731445 C31.54261495 8.55489445 33.55061149 8.61914 35.55859375 8.68359375 C37.37315063 8.73858032 37.37315063 8.73858032 39.22436523 8.79467773 C42 9 42 9 43 10 C43.07205511 11.68608966 43.08386068 13.37500659 43.0625 15.0625 C43.05347656 15.98160156 43.04445312 16.90070312 43.03515625 17.84765625 C43.01775391 18.91306641 43.01775391 18.91306641 43 20 C42.24074219 20.22816406 41.48148438 20.45632812 40.69921875 20.69140625 C37.3967611 22.29245301 36.55761537 23.75137784 34.8125 26.9375 C34.07966797 28.25041016 34.07966797 28.25041016 33.33203125 29.58984375 C32.67267578 30.78287109 32.67267578 30.78287109 32 32 C31.34 32.99 30.68 33.98 30 35 C30.91523438 35.20496094 31.83046875 35.40992188 32.7734375 35.62109375 C33.96195313 35.89050781 35.15046875 36.15992188 36.375 36.4375 C37.55835938 36.70433594 38.74171875 36.97117188 39.9609375 37.24609375 C43 38 43 38 45 39 C44.51675181 44.15464734 41.81389239 47.81550319 39 52 C32.57717011 51.62945212 27.66105279 49.75537567 21.83203125 47.05859375 C18.98532304 45.99451385 17.00592218 45.78568379 14 46 C14.66 46.66 15.32 47.32 16 48 C16.125 51.125 16.125 51.125 16 54 C16.6612085 53.99476318 17.32241699 53.98952637 18.00366211 53.98413086 C20.98159851 53.96342344 23.95951982 53.95035988 26.9375 53.9375 C28.49887695 53.92493164 28.49887695 53.92493164 30.09179688 53.91210938 C31.57583008 53.90727539 31.57583008 53.90727539 33.08984375 53.90234375 C34.00628662 53.89710693 34.92272949 53.89187012 35.86694336 53.88647461 C38 54 38 54 39 55 C39.50521802 62.70751212 39.01218585 70.39767458 38.1875 78.0625 C38.11748779 78.77599609 38.04747559 79.48949219 37.9753418 80.22460938 C37.46897522 84.48556045 36.61120553 87.57120827 34 91 C28.19626231 94.45754586 23.56891583 95.15256307 16.875 95.1875 C15.63492188 95.20167969 14.39484375 95.21585937 13.1171875 95.23046875 C10 95 10 95 8 93 C7.5859375 90.6171875 7.5859375 90.6171875 7.375 87.875 C7.26285156 86.50988281 7.26285156 86.50988281 7.1484375 85.1171875 C7.09945312 84.41851562 7.05046875 83.71984375 7 83 C5.82244141 83.92232422 5.82244141 83.92232422 4.62109375 84.86328125 C-8.12273128 94.72305223 -8.12273128 94.72305223 -14.625 95.1875 C-17.96920683 93.51539658 -19.12097751 91.03339607 -20.88671875 87.8125 C-21.87796297 85.84098593 -21.87796297 85.84098593 -24 85 C-24.061875 85.7425 -24.12375 86.485 -24.1875 87.25 C-25.25640387 90.86782848 -26.90765572 91.93843714 -30 94 C-33.71745307 95.23915102 -37.19123381 95.18407713 -41.0625 95.1875 C-41.79533203 95.19974609 -42.52816406 95.21199219 -43.28320312 95.22460938 C-45.19026507 95.22986299 -47.09684886 95.12218272 -49 95 C-52.3380649 91.6619351 -51.24647248 87.02440408 -51.265625 82.48046875 C-52.26906673 77.72479546 -54.08406212 76.71940131 -58 74 C-58.17015625 75.18078125 -58.3403125 76.3615625 -58.515625 77.578125 C-58.75955923 79.13555121 -59.0043985 80.69283585 -59.25 82.25 C-59.35957031 83.02730469 -59.46914062 83.80460937 -59.58203125 84.60546875 C-60.17099697 88.23225764 -60.64242843 90.52074958 -62.87109375 93.5078125 C-65.5035116 95.35292005 -67.71400608 95.67818593 -70.91015625 95.5234375 C-74.81852974 94.54451779 -77.27216436 91.83142433 -80 89 C-80.804375 88.21625 -81.60875 87.4325 -82.4375 86.625 C-82.953125 86.08875 -83.46875 85.5525 -84 85 C-84.721875 85.721875 -85.44375 86.44375 -86.1875 87.1875 C-88.79166667 89.79166667 -91.39583333 92.39583333 -94 95 C-96.97931181 93.65996019 -99.04045138 92.14378669 -101.375 89.875 C-104.04454696 87.49950681 -104.7264341 87.02984355 -108.4375 86.625 C-109.283125 86.74875 -110.12875 86.8725 -111 87 C-111.495 88.485 -111.495 88.485 -112 90 C-113.95766281 90.08082094 -115.91626728 90.13910778 -117.875 90.1875 C-119.51082031 90.23970703 -119.51082031 90.23970703 -121.1796875 90.29296875 C-122.11039063 90.19628906 -123.04109375 90.09960938 -124 90 C-126.63290343 86.05064486 -126.28744926 82.64494248 -126.265625 78.0625 C-126.26849518 76.7477771 -126.26849518 76.7477771 -126.27142334 75.40649414 C-126.27278399 73.55387078 -126.26909594 71.70123784 -126.26074219 69.84863281 C-126.25004092 67.01085011 -126.26064148 64.17370048 -126.2734375 61.3359375 C-126.27211588 59.53645693 -126.26955345 57.73697676 -126.265625 55.9375 C-126.26967346 55.08744385 -126.27372192 54.2373877 -126.27789307 53.36157227 C-126.22993499 47.34490249 -126.22993499 47.34490249 -124 44 C-120.92724609 43.65942383 -120.92724609 43.65942383 -117.0234375 43.70703125 C-116.33819 43.71127609 -115.6529425 43.71552094 -114.94692993 43.71989441 C-112.75588871 43.73670247 -110.56576368 43.77435595 -108.375 43.8125 C-106.89063827 43.82754421 -105.40626215 43.84123307 -103.921875 43.85351562 C-100.28095167 43.8866121 -96.64056522 43.93840793 -93 44 C-93 43.67 -93 43.34 -93 43 C-104.22 42.67 -115.44 42.34 -127 42 C-126.98839844 45.81433594 -126.97679687 49.62867188 -126.96484375 53.55859375 C-126.95705458 57.2354321 -126.95097702 60.91226954 -126.94506836 64.58911133 C-126.9400263 67.15291757 -126.93319286 69.71672091 -126.92456055 72.28051758 C-126.91248936 75.95655021 -126.90677058 79.63254498 -126.90234375 83.30859375 C-126.89718246 84.46274277 -126.89202118 85.61689178 -126.88670349 86.80601501 C-126.88662796 87.86703934 -126.88655243 88.92806366 -126.88647461 90.02124023 C-126.884254 90.96055893 -126.88203339 91.89987762 -126.87974548 92.86766052 C-127 95 -127 95 -128 96 C-129.810285 96.09879565 -131.62452727 96.12971514 -133.4375 96.125 C-134.42621094 96.12757812 -135.41492188 96.13015625 -136.43359375 96.1328125 C-139 96 -139 96 -141 95 C-141 90.71 -141 86.42 -141 82 C-142.42892578 82.34224609 -142.42892578 82.34224609 -143.88671875 82.69140625 C-145.76810547 83.12259766 -145.76810547 83.12259766 -147.6875 83.5625 C-148.92886719 83.85253906 -150.17023438 84.14257812 -151.44921875 84.44140625 C-154.76111454 84.96241956 -156.81860153 84.91852996 -160 84 C-161.59138085 79.82262526 -162.21278058 76.46839215 -162 72 C-160.02 71.505 -160.02 71.505 -158 71 C-158 52.85 -158 34.7 -158 16 C-158.99 15.67 -159.98 15.34 -161 15 C-161.02688151 13.35425434 -161.04634123 11.70838587 -161.0625 10.0625 C-161.07410156 9.14597656 -161.08570313 8.22945312 -161.09765625 7.28515625 C-161 5 -161 5 -160 4 C-157.40640678 3.91148471 -154.83960309 3.88474055 -152.24609375 3.90234375 C-151.47064713 3.9037587 -150.6952005 3.90517365 -149.89625549 3.90663147 C-147.40996506 3.91224655 -144.9237634 3.92480154 -142.4375 3.9375 C-140.75586067 3.94251306 -139.07421994 3.9470763 -137.39257812 3.95117188 C-133.26168434 3.96222087 -129.13085724 3.97949555 -125 4 C-124.505 6.475 -124.505 6.475 -124 9 C-121.36 9 -118.72 9 -116 9 C-116.020625 8.030625 -116.04125 7.06125 -116.0625 6.0625 C-116 3 -116 3 -115 2 C-112.81360547 1.92741054 -110.62499611 1.91626217 -108.4375 1.9375 C-106.64119141 1.95103516 -106.64119141 1.95103516 -104.80859375 1.96484375 C-103.88175781 1.97644531 -102.95492187 1.98804687 -102 2 C-101.505 5.465 -101.505 5.465 -101 9 C-98.03 9 -95.06 9 -92 9 C-92.020625 7.865625 -92.04125 6.73125 -92.0625 5.5625 C-92 2 -92 2 -91 1 C-89.189715 0.90120435 -87.37547273 0.87028486 -85.5625 0.875 C-84.57378906 0.87242188 -83.58507812 0.86984375 -82.56640625 0.8671875 C-80 1 -80 1 -78 2 C-78 3.65 -78 5.3 -78 7 C-74.7 6.67 -71.4 6.34 -68 6 C-66.96814911 8.93404558 -65.94923206 11.87152276 -64.9375 14.8125 C-64.64294922 15.64587891 -64.34839844 16.47925781 -64.04492188 17.33789062 C-63.6340332 18.54155273 -63.6340332 18.54155273 -63.21484375 19.76953125 C-62.82993774 20.87711792 -62.82993774 20.87711792 -62.43725586 22.00708008 C-62 24 -62 24 -63 27 C-63.66 27.33 -64.32 27.66 -65 28 C-64.01 28.4640625 -64.01 28.4640625 -63 28.9375 C-60.21456781 31.80997695 -60.55996054 33.97632333 -60.56640625 37.84375 C-61.08699876 40.43264246 -61.99640451 41.34185201 -64 43 C-63.34 43.33 -62.68 43.66 -62 44 C-63.08918967 50.86476118 -64.90238801 56.77470211 -68 63 C-66.56445975 63.50559908 -65.1264798 64.0042749 -63.6875 64.5 C-62.88699219 64.7784375 -62.08648437 65.056875 -61.26171875 65.34375 C-58.91230578 66.13933107 -58.91230578 66.13933107 -56 66 C-50.89700578 60.11557279 -45.89400405 52.5760162 -44 45 C-47.96 45 -51.92 45 -56 45 C-56 41.04 -56 37.08 -56 33 C-51.05 32.505 -51.05 32.505 -46 32 C-46 31.34 -46 30.68 -46 30 C-47.55705194 28.42159428 -47.55705194 28.42159428 -49.5 26.875 C-50.1496875 26.33617188 -50.799375 25.79734375 -51.46875 25.2421875 C-51.9740625 24.83226563 -52.479375 24.42234375 -53 24 C-51.88820837 20.66462511 -50.52588702 19.36292656 -48 17 C-49.98 16.34 -51.96 15.68 -54 15 C-54.02688151 13.35425434 -54.04634123 11.70838587 -54.0625 10.0625 C-54.07410156 9.14597656 -54.08570312 8.22945312 -54.09765625 7.28515625 C-54 5 -54 5 -53 4 C-47.26744378 3.68226789 -41.53246944 3.64301832 -35.79199219 3.5949707 C-33.85789072 3.57344112 -31.92388536 3.53939828 -29.99023438 3.49243164 C-27.19877693 3.42522812 -24.40934129 3.39793405 -21.6171875 3.37890625 C-20.7596286 3.35107559 -19.9020697 3.32324493 -19.01852417 3.29457092 C-13.21773168 3.31426795 -10.34618918 4.64214648 -6.19314575 8.70933533 C-5.79940765 9.13525467 -5.40566956 9.56117401 -5 10 C-4.72285156 9.36191406 -4.44570312 8.72382813 -4.16015625 8.06640625 C-3.79792969 7.24011719 -3.43570313 6.41382813 -3.0625 5.5625 C-2.70285156 4.73878906 -2.34320313 3.91507813 -1.97265625 3.06640625 C-1 1 -1 1 0 0 Z M-144 16 C-144 18.97 -144 21.94 -144 25 C-143.01 25 -142.02 25 -141 25 C-140.74984127 21.58357241 -140.74984127 21.58357241 -141 18 C-141.99 17.34 -142.98 16.68 -144 16 Z M-38 16 C-37.34 17.32 -36.68 18.64 -36 20 C-35.01 20.33 -34.02 20.66 -33 21 C-30.76975869 19.76486718 -30.76975869 19.76486718 -29 18 C-29 17.34 -29 16.68 -29 16 C-31.97 16 -34.94 16 -38 16 Z M-127 21 C-127 23.64 -127 26.28 -127 29 C-125.68 29 -124.36 29 -123 29 C-123 27.02 -123 25.04 -123 23 C-124.32 22.34 -125.64 21.68 -127 21 Z M13 21 C13 22.32 13 23.64 13 25 C14.32 25.66 15.64 26.32 17 27 C17.99 26.01 18.98 25.02 20 24 C19.67 23.01 19.34 22.02 19 21 C17.02 21 15.04 21 13 21 Z M-111 22 C-110.67 24.31 -110.34 26.62 -110 29 C-109.34 29 -108.68 29 -108 29 C-107.67 26.69 -107.34 24.38 -107 22 C-108.32 22 -109.64 22 -111 22 Z M-94 23 C-94.33 24.98 -94.66 26.96 -95 29 C-94.01 29 -93.02 29 -92 29 C-92.33 27.02 -92.66 25.04 -93 23 C-93.33 23 -93.66 23 -94 23 Z M-19.625 26 C-20.57246094 26.8353125 -20.57246094 26.8353125 -21.5390625 27.6875 C-22.02117187 28.120625 -22.50328125 28.55375 -23 29 C-21.29268684 32.27392188 -21.29268684 32.27392188 -18 32.8125 C-16.515 32.9053125 -16.515 32.9053125 -15 33 C-14.34 32.34 -13.68 31.68 -13 31 C-13.99 30.01 -14.98 29.02 -16 28 C-15.34 26.35 -14.68 24.7 -14 23 C-16.77042109 23 -17.58164956 24.1836885 -19.625 26 Z M-77 26 C-77 26.99 -77 27.98 -77 29 C-76.34 29 -75.68 29 -75 29 C-75 28.01 -75 27.02 -75 26 C-75.66 26 -76.32 26 -77 26 Z M-1 29 C-3.64573501 31.22877725 -3.64573501 31.22877725 -6 34 C-5.95502158 36.27523089 -5.95502158 36.27523089 -5 38 C-0.7212019 37.58413646 -0.7212019 37.58413646 2.875 35.4375 C3.24625 34.963125 3.6175 34.48875 4 34 C2.35 32.35 0.7 30.7 -1 29 Z M-144 37 C-144 39.97 -144 42.94 -144 46 C-143.01 45.67 -142.02 45.34 -141 45 C-141 42.69 -141 40.38 -141 38 C-141.99 37.67 -142.98 37.34 -144 37 Z M-10 49 C-10.66 50.65 -11.32 52.3 -12 54 C-8.04 54 -4.08 54 0 54 C0 53.01 0 52.02 0 51 C-2.31 51.33 -4.62 51.66 -7 52 C-7 51.34 -7 50.68 -7 50 C-7.99 49.67 -8.98 49.34 -10 49 Z M-111 55 C-111 56.32 -111 57.64 -111 59 C-109.35 59 -107.7 59 -106 59 C-106.33 57.68 -106.66 56.36 -107 55 C-108.32 55 -109.64 55 -111 55 Z M-93 57 C-93 62.61 -93 68.22 -93 74 C-92.67 73.34 -92.34 72.68 -92 72 C-91.34 72 -90.68 72 -90 72 C-88.3887202 66.28728072 -89.91010454 62.31329355 -92 57 C-92.33 57 -92.66 57 -93 57 Z M-144 58 C-144 61.3 -144 64.6 -144 68 C-143.01 68 -142.02 68 -141 68 C-141 64.7 -141 61.4 -141 58 C-141.99 58 -142.98 58 -144 58 Z M-24 59 C-24 67.25 -24 75.5 -24 84 C-15.7473058 80.69892232 -7.89655144 76.72301609 -3 69 C-3 68.34 -3 67.68 -3 67 C-8.445 66.505 -8.445 66.505 -14 66 C-14.33 64.35 -14.66 62.7 -15 61 C-19.455 60.01 -19.455 60.01 -24 59 Z M14 67 C13.35089846 68.58199631 12.70585306 70.16565724 12.0625 71.75 C11.70285156 72.63171875 11.34320313 73.5134375 10.97265625 74.421875 C10.14643424 76.61186104 9.50630057 78.71898271 9 81 C10.60332791 81.08121924 12.20784026 81.13929134 13.8125 81.1875 C14.70582031 81.22230469 15.59914062 81.25710937 16.51953125 81.29296875 C19.00232222 81.18514013 19.00232222 81.18514013 20.78125 79.84375 C22.44474851 77.32717533 22.51140486 75.3061174 22.6875 72.3125 C22.75324219 71.31863281 22.81898438 70.32476562 22.88671875 69.30078125 C22.92410156 68.54152344 22.96148437 67.78226562 23 67 C20.03 67 17.06 67 14 67 Z M-110 69 C-111.29633621 70.06645115 -111.29633621 70.06645115 -111.0625 72.5625 C-111.041875 73.366875 -111.02125 74.17125 -111 75 C-109.35 75 -107.7 75 -106 75 C-106 73.35 -106 71.7 -106 70 C-107.94603274 69.40929986 -107.94603274 69.40929986 -110 69 Z M-41 70 C-42.05858227 71.26091517 -43.07243808 72.55959859 -44.0625 73.875 C-44.61035156 74.59429687 -45.15820312 75.31359375 -45.72265625 76.0546875 C-47.1829588 77.89076827 -47.1829588 77.89076827 -47 80 C-44.69 80 -42.38 80 -40 80 C-40 76.7 -40 73.4 -40 70 C-40.33 70 -40.66 70 -41 70 Z " fill="#010101" transform="translate(171,19)"/>
<path d="M0 0 C1.08152344 0.36480469 2.16304687 0.72960937 3.27734375 1.10546875 C4.36144531 1.46253906 5.44554687 1.81960937 6.5625 2.1875 C9.21484375 3.29296875 9.21484375 3.29296875 10.21484375 5.29296875 C8.921875 7.9375 8.921875 7.9375 7.02734375 11.10546875 C6.41503906 12.14316406 5.80273438 13.18085938 5.171875 14.25 C3.34083489 17.09706635 1.38064324 19.6949698 -0.78515625 22.29296875 C-0.12515625 22.95296875 0.53484375 23.61296875 1.21484375 24.29296875 C1.61316406 23.53371094 2.01148438 22.77445313 2.421875 21.9921875 C2.95167969 20.99832031 3.48148438 20.00445312 4.02734375 18.98046875 C4.54941406 17.99433594 5.07148438 17.00820313 5.609375 15.9921875 C7.21484375 13.29296875 7.21484375 13.29296875 10.21484375 10.29296875 C13.84484375 11.61296875 17.47484375 12.93296875 21.21484375 14.29296875 C21.17359375 13.01421875 21.13234375 11.73546875 21.08984375 10.41796875 C21.01953125 8.23828125 21.01953125 8.23828125 21.21484375 6.29296875 C23.73814838 3.76966412 24.58457568 4.04040408 28.07592773 4.03417969 C29.08715195 4.02787537 30.09837616 4.02157104 31.14024353 4.01507568 C32.23607254 4.01912415 33.33190155 4.02317261 34.4609375 4.02734375 C35.58299088 4.0254303 36.70504425 4.02351685 37.86109924 4.02154541 C40.23756128 4.02018247 42.61403073 4.02388646 44.99047852 4.03222656 C48.63379623 4.04291434 52.27661969 4.03233983 55.91992188 4.01953125 C58.22526151 4.02085302 60.53060083 4.02341578 62.8359375 4.02734375 C64.47664467 4.02127106 64.47664467 4.02127106 66.15049744 4.01507568 C67.672062 4.02453217 67.672062 4.02453217 69.22436523 4.03417969 C70.11768051 4.03577087 71.01099579 4.03736206 71.93138123 4.03900146 C74.21484375 4.29296875 74.21484375 4.29296875 77.21484375 6.29296875 C78.50421936 15.1344015 73.99524844 22.47886441 68.96484375 29.41796875 C67.72536334 31.05100681 66.47903141 32.67898159 65.21484375 34.29296875 C68.33637994 37.41450494 72.38984045 37.96981082 76.5625 39.1953125 C77.43777344 39.55753906 78.31304687 39.91976562 79.21484375 40.29296875 C80.21484375 43.29296875 80.21484375 43.29296875 79.10546875 45.73828125 C78.5640625 46.62257812 78.02265625 47.506875 77.46484375 48.41796875 C76.93375 49.30742188 76.40265625 50.196875 75.85546875 51.11328125 C74.21484375 53.29296875 74.21484375 53.29296875 71.21484375 54.29296875 C68.8046875 53.76953125 68.8046875 53.76953125 66.15234375 52.91796875 C65.27449219 52.64210937 64.39664063 52.36625 63.4921875 52.08203125 C61.21484375 51.29296875 61.21484375 51.29296875 59.21484375 50.29296875 C59.21484375 52.27296875 59.21484375 54.25296875 59.21484375 56.29296875 C60.82166016 56.27556641 60.82166016 56.27556641 62.4609375 56.2578125 C63.85807118 56.24843576 65.25520674 56.23933544 66.65234375 56.23046875 C67.35939453 56.22208984 68.06644531 56.21371094 68.79492188 56.20507812 C70.60177934 56.19643287 72.40871978 56.24076864 74.21484375 56.29296875 C75.21484375 57.29296875 75.21484375 57.29296875 75.3125 60.015625 C75.30089844 61.11777344 75.28929687 62.21992187 75.27734375 63.35546875 C75.26832031 64.46019531 75.25929688 65.56492187 75.25 66.703125 C75.23839844 67.55777344 75.22679687 68.41242188 75.21484375 69.29296875 C72.21170627 70.79453749 69.42416853 70.38578079 66.08984375 70.35546875 C64.80851562 70.34644531 63.5271875 70.33742188 62.20703125 70.328125 C61.21960938 70.31652344 60.2321875 70.30492188 59.21484375 70.29296875 C59.21484375 73.26296875 59.21484375 76.23296875 59.21484375 79.29296875 C61.21998047 79.22335938 61.21998047 79.22335938 63.265625 79.15234375 C65.01950894 79.11482752 66.773417 79.0784272 68.52734375 79.04296875 C69.40841797 79.00945312 70.28949219 78.9759375 71.19726562 78.94140625 C77.74360874 78.8418421 77.74360874 78.8418421 80.3203125 81.30859375 C80.61550781 81.9634375 80.91070312 82.61828125 81.21484375 83.29296875 C86.68155541 69.33427782 88.28813142 55.98057886 88.49609375 41.0703125 C88.53383482 38.96549444 88.57159579 36.86067675 88.609375 34.75585938 C88.66329452 31.47047895 88.71555575 28.18507688 88.76708984 24.8996582 C88.81858923 21.70645992 88.87585485 18.51340306 88.93359375 15.3203125 C88.94716919 14.3287767 88.96074463 13.33724091 88.97473145 12.31565857 C88.99144897 11.40703568 89.0081665 10.49841278 89.02539062 9.56225586 C89.0379187 8.75968857 89.05044678 7.95712128 89.06335449 7.13023376 C89.21484375 5.29296875 89.21484375 5.29296875 90.21484375 4.29296875 C93.04525047 4.19775969 95.85119368 4.16743244 98.68188477 4.17944336 C100.01346619 4.17922432 100.01346619 4.17922432 101.37194824 4.17900085 C104.32090659 4.17970032 107.26980262 4.18749427 110.21875 4.1953125 C112.25756292 4.19717656 114.29637629 4.19860052 116.33518982 4.19960022 C121.71268949 4.20342634 127.09016233 4.21325743 132.46765137 4.2243042 C137.95043576 4.2345163 143.43322447 4.23909741 148.91601562 4.24414062 C159.68230348 4.25487961 170.44857139 4.27195716 181.21484375 4.29296875 C182.46554176 6.79436477 182.34786842 8.56689566 182.33984375 11.35546875 C182.34242188 12.25394531 182.345 13.15242188 182.34765625 14.078125 C182.21484375 16.29296875 182.21484375 16.29296875 181.21484375 17.29296875 C178.68434973 17.36610442 176.18179538 17.38544402 173.65234375 17.35546875 C172.5859668 17.34870117 172.5859668 17.34870117 171.49804688 17.34179688 C169.73694362 17.32997739 167.97588339 17.31204138 166.21484375 17.29296875 C166.21484375 19.27296875 166.21484375 21.25296875 166.21484375 23.29296875 C167.21386719 23.28136719 168.21289062 23.26976563 169.2421875 23.2578125 C170.53253906 23.24878906 171.82289063 23.23976563 173.15234375 23.23046875 C174.44011719 23.21886719 175.72789062 23.20726563 177.0546875 23.1953125 C180.21484375 23.29296875 180.21484375 23.29296875 181.21484375 24.29296875 C181.28689886 25.97905841 181.29870443 27.66797534 181.27734375 29.35546875 C181.26832031 30.27457031 181.25929688 31.19367187 181.25 32.140625 C181.23259766 33.20603516 181.23259766 33.20603516 181.21484375 34.29296875 C178.57484375 34.95296875 175.93484375 35.61296875 173.21484375 36.29296875 C177.17484375 38.93296875 181.13484375 41.57296875 185.21484375 44.29296875 C183.52253305 49.36990084 182.56284645 51.49856569 179.21484375 55.29296875 C174.54378583 53.73594944 171.1277869 51.20849502 167.21484375 48.29296875 C167.07046875 49.59234375 166.92609375 50.89171875 166.77734375 52.23046875 C166.33984375 56.16796875 166.33984375 56.16796875 165.21484375 57.29296875 C163.40455875 57.3917644 161.59031648 57.42268389 159.77734375 57.41796875 C158.78863281 57.42054687 157.79992187 57.423125 156.78125 57.42578125 C154.21484375 57.29296875 154.21484375 57.29296875 152.21484375 56.29296875 C152.21484375 58.27296875 152.21484375 60.25296875 152.21484375 62.29296875 C152.93663818 62.28773193 153.65843262 62.28249512 154.40209961 62.27709961 C157.65217224 62.25639517 160.90223103 62.24332957 164.15234375 62.23046875 C165.28865234 62.22208984 166.42496094 62.21371094 167.59570312 62.20507812 C168.67529297 62.20185547 169.75488281 62.19863281 170.8671875 62.1953125 C172.3675354 62.18745728 172.3675354 62.18745728 173.89819336 62.17944336 C176.21484375 62.29296875 176.21484375 62.29296875 177.21484375 63.29296875 C177.31308312 64.95725926 177.34458006 66.62578806 177.33984375 68.29296875 C177.34242188 69.20046875 177.345 70.10796875 177.34765625 71.04296875 C177.21484375 73.29296875 177.21484375 73.29296875 176.21484375 74.29296875 C174.43413129 74.38023098 172.65001235 74.39995916 170.8671875 74.390625 C169.78759766 74.38740234 168.70800781 74.38417969 167.59570312 74.38085938 C166.45939453 74.37248047 165.32308594 74.36410156 164.15234375 74.35546875 C163.01216797 74.35095703 161.87199219 74.34644531 160.69726562 74.34179688 C157.86974024 74.32996622 155.04231735 74.31348285 152.21484375 74.29296875 C152.21484375 76.27296875 152.21484375 78.25296875 152.21484375 80.29296875 C153.118396 80.28773193 154.02194824 80.28249512 154.95288086 80.27709961 C158.29435864 80.26009189 161.63579067 80.24753542 164.97729492 80.23803711 C166.42554448 80.23299774 167.87378892 80.22616622 169.32202148 80.2175293 C171.39958963 80.20544628 173.47709072 80.19973664 175.5546875 80.1953125 C176.80628662 80.19007568 178.05788574 80.18483887 179.34741211 80.17944336 C182.21484375 80.29296875 182.21484375 80.29296875 183.21484375 81.29296875 C183.28728428 83.31261074 183.29861563 85.33463999 183.27734375 87.35546875 C183.26832031 88.46019531 183.25929688 89.56492187 183.25 90.703125 C183.23259766 91.98509766 183.23259766 91.98509766 183.21484375 93.29296875 C180.13746583 94.83165771 176.90147871 94.44908935 173.52392578 94.45410156 C172.73026611 94.45906647 171.93660645 94.46403137 171.11889648 94.46914673 C168.48680767 94.48378161 165.85477911 94.49057247 163.22265625 94.49609375 C161.39663694 94.50184402 159.57061765 94.50760177 157.74459839 94.5133667 C153.91289996 94.5238804 150.08122254 94.52972068 146.24951172 94.53320312 C141.33760719 94.53868924 136.42597968 94.56271818 131.51416206 94.59117508 C127.74123318 94.60979071 123.96837117 94.61500648 120.19540024 94.616539 C118.38448446 94.6195684 116.57356993 94.62760657 114.76269913 94.64072418 C112.22976809 94.6577627 109.69751574 94.65590999 107.16455078 94.64941406 C106.41531342 94.65862885 105.66607605 94.66784363 104.89413452 94.67733765 C100.71985407 94.64377102 98.24172462 94.26865904 95.21484375 91.29296875 C94.22484375 93.27296875 94.22484375 93.27296875 93.21484375 95.29296875 C87.59262153 93.50407986 87.59262153 93.50407986 85.08984375 92.10546875 C82.71918742 91.07818434 81.59236595 91.39114998 79.21484375 92.29296875 C78.88484375 92.62296875 78.55484375 92.95296875 78.21484375 93.29296875 C76.50695094 93.3917812 74.79497682 93.42095841 73.08422852 93.42236328 C71.98961807 93.42551544 70.89500763 93.4286676 69.76722717 93.43191528 C68.57560471 93.42989105 67.38398224 93.42786682 66.15625 93.42578125 C64.94162582 93.42673798 63.72700165 93.4276947 62.47557068 93.42868042 C59.90062407 93.42936252 57.32567575 93.42750616 54.75073242 93.42333984 C50.79797517 93.41799664 46.84533179 93.42328149 42.89257812 93.4296875 C40.39713516 93.42902663 37.90169228 93.42774529 35.40625 93.42578125 C34.21665176 93.42780548 33.02705353 93.42982971 31.80140686 93.43191528 C30.15476295 93.42718704 30.15476295 93.42718704 28.47485352 93.42236328 C27.50524185 93.42156769 26.53563019 93.42077209 25.53663635 93.41995239 C23.21484375 93.29296875 23.21484375 93.29296875 21.21484375 92.29296875 C20.80078125 89.7890625 20.80078125 89.7890625 20.58984375 86.73046875 C20.51507813 85.71855469 20.4403125 84.70664063 20.36328125 83.6640625 C20.31429687 82.88160156 20.2653125 82.09914063 20.21484375 81.29296875 C17.24484375 81.29296875 14.27484375 81.29296875 11.21484375 81.29296875 C11.23804688 82.20820312 11.26125 83.1234375 11.28515625 84.06640625 C11.30320313 85.25492187 11.32125 86.4434375 11.33984375 87.66796875 C11.36304688 88.85132812 11.38625 90.0346875 11.41015625 91.25390625 C11.21484375 94.29296875 11.21484375 94.29296875 9.21484375 96.29296875 C6.46484375 96.5234375 6.46484375 96.5234375 3.21484375 96.48046875 C2.14234375 96.47402344 1.06984375 96.46757813 -0.03515625 96.4609375 C-2.78515625 96.29296875 -2.78515625 96.29296875 -4.78515625 95.29296875 C-5.11515625 88.36296875 -5.44515625 81.43296875 -5.78515625 74.29296875 C-7.10515625 79.24296875 -8.42515625 84.19296875 -9.78515625 89.29296875 C-11.02265625 89.33421875 -12.26015625 89.37546875 -13.53515625 89.41796875 C-14.23125 89.44117187 -14.92734375 89.464375 -15.64453125 89.48828125 C-18.086716 89.26545417 -19.67152396 88.50211875 -21.78515625 87.29296875 C-21.37693053 82.31261492 -20.83038999 77.42228472 -19.9453125 72.50390625 C-19.79682861 71.65803955 -19.64834473 70.81217285 -19.49536133 69.94067383 C-19.190302 68.22700104 -18.87126809 66.51575313 -18.5378418 64.80737305 C-18.39773682 64.00984619 -18.25763184 63.21231934 -18.11328125 62.390625 C-17.97825195 61.67398682 -17.84322266 60.95734863 -17.70410156 60.21899414 C-17.58515776 58.1721623 -17.58515776 58.1721623 -19.23046875 56.68969727 C-19.74351562 56.22877686 -20.2565625 55.76785645 -20.78515625 55.29296875 C-21.33203125 52.84765625 -21.33203125 52.84765625 -21.53515625 50.16796875 C-21.6125 49.27851562 -21.68984375 48.3890625 -21.76953125 47.47265625 C-21.77726563 46.39371094 -21.77726563 46.39371094 -21.78515625 45.29296875 C-20.78515625 44.29296875 -20.78515625 44.29296875 -16.97265625 44.04296875 C-13.42142335 43.66680584 -12.94311855 43.45488011 -10.28515625 40.73046875 C-9.79015625 39.92609375 -9.29515625 39.12171875 -8.78515625 38.29296875 C-10.23202267 34.92694273 -12.064927 32.85482307 -14.72265625 30.35546875 C-17.6301533 27.53239993 -19.95350901 24.95626323 -21.78515625 21.29296875 C-20.71635402 19.9479592 -19.62953117 18.61725437 -18.53515625 17.29296875 C-17.931875 16.55046875 -17.32859375 15.80796875 -16.70703125 15.04296875 C-14.78515625 13.29296875 -14.78515625 13.29296875 -10.78515625 13.29296875 C-10.53765625 12.63296875 -10.29015625 11.97296875 -10.03515625 11.29296875 C-9.01117874 8.83542273 -7.9405343 6.43994709 -6.78515625 4.04296875 C-6.45515625 3.3571875 -6.12515625 2.67140625 -5.78515625 1.96484375 C-4.09113254 -0.86735214 -3.1590371 -0.8019435 0 0 Z M22.21484375 17.29296875 C20.41848494 19.37781565 18.95587909 21.32034782 17.46484375 23.60546875 C17.05363281 24.20037109 16.64242187 24.79527344 16.21875 25.40820312 C13.76565214 29.02706427 13.76565214 29.02706427 13.21484375 33.29296875 C15.19484375 33.29296875 17.17484375 33.29296875 19.21484375 33.29296875 C20.20484375 35.93296875 21.19484375 38.57296875 22.21484375 41.29296875 C27.94543051 40.1468514 32.92509037 38.76902352 38.21484375 36.29296875 C37.85132813 35.84308594 37.4878125 35.39320312 37.11328125 34.9296875 C32.78384456 29.39022876 29.44626204 23.52662672 26.21484375 17.29296875 C24.89484375 17.29296875 23.57484375 17.29296875 22.21484375 17.29296875 Z M44.21484375 17.29296875 C45.19910274 22.21426369 46.03104555 23.69835788 49.21484375 27.29296875 C53.42247599 25.79024295 55.01761955 23.0596388 57.21484375 19.29296875 C57.21484375 18.63296875 57.21484375 17.97296875 57.21484375 17.29296875 C52.92484375 17.29296875 48.63484375 17.29296875 44.21484375 17.29296875 Z M105.21484375 17.29296875 C105.21484375 19.60296875 105.21484375 21.91296875 105.21484375 24.29296875 C111.64984375 23.79796875 111.64984375 23.79796875 118.21484375 23.29296875 C118.21484375 21.31296875 118.21484375 19.33296875 118.21484375 17.29296875 C113.92484375 17.29296875 109.63484375 17.29296875 105.21484375 17.29296875 Z M131.21484375 17.29296875 C131.21484375 19.27296875 131.21484375 21.25296875 131.21484375 23.29296875 C138.7065984 24.37032285 145.70389559 24.13182035 153.21484375 23.29296875 C153.21484375 21.31296875 153.21484375 19.33296875 153.21484375 17.29296875 C145.95484375 17.29296875 138.69484375 17.29296875 131.21484375 17.29296875 Z M105.21484375 34.29296875 C105.21484375 37.26296875 105.21484375 40.23296875 105.21484375 43.29296875 C108.93598946 40.9775892 111.82714036 39.00717402 114.21484375 35.29296875 C111.24484375 34.96296875 108.27484375 34.63296875 105.21484375 34.29296875 Z M136.21484375 36.29296875 C139.67984375 38.27296875 139.67984375 38.27296875 143.21484375 40.29296875 C144.53484375 38.64296875 145.85484375 36.99296875 147.21484375 35.29296875 C145.95671875 35.08671875 144.69859375 34.88046875 143.40234375 34.66796875 C142.69464844 34.55195312 141.98695313 34.4359375 141.2578125 34.31640625 C138.89728551 34.09719027 138.89728551 34.09719027 136.21484375 36.29296875 Z M7.21484375 39.29296875 C6.18877035 40.60634271 5.1875705 41.9396098 4.21484375 43.29296875 C6.19484375 43.29296875 8.17484375 43.29296875 10.21484375 43.29296875 C9.55484375 41.97296875 8.89484375 40.65296875 8.21484375 39.29296875 C7.88484375 39.29296875 7.55484375 39.29296875 7.21484375 39.29296875 Z M49.21484375 46.29296875 C48.55484375 46.95296875 47.89484375 47.61296875 47.21484375 48.29296875 C49.52484375 48.29296875 51.83484375 48.29296875 54.21484375 48.29296875 C53.55484375 47.63296875 52.89484375 46.97296875 52.21484375 46.29296875 C51.22484375 46.29296875 50.23484375 46.29296875 49.21484375 46.29296875 Z M131.21484375 47.29296875 C131.21484375 50.59296875 131.21484375 53.89296875 131.21484375 57.29296875 C126.92484375 57.29296875 122.63484375 57.29296875 118.21484375 57.29296875 C118.21484375 54.65296875 118.21484375 52.01296875 118.21484375 49.29296875 C117.69535156 49.66550781 117.17585938 50.03804687 116.640625 50.421875 C115.59455078 51.13150391 115.59455078 51.13150391 114.52734375 51.85546875 C113.50060547 52.56896484 113.50060547 52.56896484 112.453125 53.296875 C109.62544731 54.5552656 108.16316745 53.99535723 105.21484375 53.29296875 C104.37840076 57.41734457 103.54621537 61.54256793 102.71484375 65.66796875 C102.47636719 66.84359375 102.23789062 68.01921875 101.9921875 69.23046875 C101.76660156 70.35195312 101.54101562 71.4734375 101.30859375 72.62890625 C101.09912109 73.6657959 100.88964844 74.70268555 100.67382812 75.77099609 C100.1551594 78.19368211 100.1551594 78.19368211 100.21484375 80.29296875 C103.18484375 80.29296875 106.15484375 80.29296875 109.21484375 80.29296875 C110.0976213 75.77481594 110.32073878 71.51784181 110.27734375 66.91796875 C110.25671875 64.73171875 110.23609375 62.54546875 110.21484375 60.29296875 C115.16484375 60.62296875 120.11484375 60.95296875 125.21484375 61.29296875 C125.54484375 67.56296875 125.87484375 73.83296875 126.21484375 80.29296875 C129.18484375 80.29296875 132.15484375 80.29296875 135.21484375 80.29296875 C135.27542969 79.06320313 135.33601563 77.8334375 135.3984375 76.56640625 C135.4828938 74.93358448 135.56753922 73.30077248 135.65234375 71.66796875 C135.69166016 70.85972656 135.73097656 70.05148438 135.77148438 69.21875 C136.23775688 60.39543943 136.23775688 60.39543943 137.21484375 56.29296875 C137.87484375 55.96296875 138.53484375 55.63296875 139.21484375 55.29296875 C138.19511305 51.51996517 137.55611713 50.49090731 134.08984375 48.48046875 C133.14109375 48.08859375 132.19234375 47.69671875 131.21484375 47.29296875 Z M34.765625 51.60546875 C33.49428711 52.01152344 33.49428711 52.01152344 32.19726562 52.42578125 C31.31619141 52.71195313 30.43511719 52.998125 29.52734375 53.29296875 C28.18833008 53.72222656 28.18833008 53.72222656 26.82226562 54.16015625 C24.61851981 54.86724047 22.41614395 55.57831438 20.21484375 56.29296875 C20.52728027 56.85918945 20.8397168 57.42541016 21.16162109 58.00878906 C22.24303888 60.35411702 22.68788704 62.29344181 23.06640625 64.83984375 C23.1953125 65.68417969 23.32421875 66.52851562 23.45703125 67.3984375 C23.58335937 68.27113281 23.7096875 69.14382812 23.83984375 70.04296875 C23.97390625 70.93113281 24.10796875 71.81929687 24.24609375 72.734375 C24.57506294 74.91967035 24.89576381 77.10620756 25.21484375 79.29296875 C30.82484375 79.29296875 36.43484375 79.29296875 42.21484375 79.29296875 C42.21484375 76.32296875 42.21484375 73.35296875 42.21484375 70.29296875 C36.93484375 69.96296875 31.65484375 69.63296875 26.21484375 69.29296875 C26.21484375 65.33296875 26.21484375 61.37296875 26.21484375 57.29296875 C34.13484375 56.79796875 34.13484375 56.79796875 42.21484375 56.29296875 C42.21484375 54.31296875 42.21484375 52.33296875 42.21484375 50.29296875 C39.30287263 50.29296875 37.50520238 50.72292033 34.765625 51.60546875 Z M147.15234375 51.73046875 C146.41886719 52.18292969 145.68539062 52.63539062 144.9296875 53.1015625 C144.36378906 53.49472656 143.79789063 53.88789062 143.21484375 54.29296875 C143.21484375 54.62296875 143.21484375 54.95296875 143.21484375 55.29296875 C146.18484375 55.62296875 149.15484375 55.95296875 152.21484375 56.29296875 C152.21484375 53.98296875 152.21484375 51.67296875 152.21484375 49.29296875 C150.31644997 49.29296875 148.71520234 50.75747213 147.15234375 51.73046875 Z M10.21484375 55.29296875 C10.54484375 56.28296875 10.87484375 57.27296875 11.21484375 58.29296875 C11.87484375 58.29296875 12.53484375 58.29296875 13.21484375 58.29296875 C12.88484375 57.30296875 12.55484375 56.31296875 12.21484375 55.29296875 C11.55484375 55.29296875 10.89484375 55.29296875 10.21484375 55.29296875 Z " fill="#030303" transform="translate(238.78515625,18.70703125)"/>
<path d="M0 0 C1.39538254 -0.05472088 2.79140897 -0.09311538 4.1875 -0.125 C4.96480469 -0.14820312 5.74210938 -0.17140625 6.54296875 -0.1953125 C9 0 9 0 14 2 C14 13.88 14 25.76 14 38 C17.63 38 21.26 38 25 38 C25.33 38.66 25.66 39.32 26 40 C24.04174127 40.02694851 22.08337774 40.04637218 20.125 40.0625 C18.48917969 40.07990234 18.48917969 40.07990234 16.8203125 40.09765625 C14 40 14 40 12 39 C12 29.76 12 20.52 12 11 C11.34 11 10.68 11 10 11 C10.33 8.36 10.66 5.72 11 3 C7.37 2.67 3.74 2.34 0 2 C0 1.34 0 0.68 0 0 Z " fill="#111111" transform="translate(222,75)"/>
<path d="M0 0 C0.33 0 0.66 0 1 0 C1 18.48 1 36.96 1 56 C-1.475 56.495 -1.475 56.495 -4 57 C-3.67 56.34 -3.34 55.68 -3 55 C-2.34 55 -1.68 55 -1 55 C-1.00222061 54.3257045 -1.00444122 53.651409 -1.00672913 52.9566803 C-1.02877929 45.96567309 -1.04390547 38.97467569 -1.05493164 31.98364258 C-1.05997377 29.37133381 -1.06680725 26.75902789 -1.07543945 24.14672852 C-1.08751036 20.40119732 -1.09322935 16.65570328 -1.09765625 12.91015625 C-1.10281754 11.73413345 -1.10797882 10.55811066 -1.11329651 9.34645081 C-1.11337204 8.26540573 -1.11344757 7.18436066 -1.11352539 6.07055664 C-1.115746 5.11347305 -1.11796661 4.15638947 -1.12025452 3.17030334 C-1 1 -1 1 0 0 Z " fill="#161616" transform="translate(14,35)"/>
<path d="M0 0 C0.66 0 1.32 0 2 0 C2 14.19 2 28.38 2 43 C1.34 43 0.68 43 0 43 C-1.68758835 39.62482331 -1.14153358 35.80144401 -1.1328125 32.08984375 C-1.13376923 31.20720352 -1.13472595 30.32456329 -1.13571167 29.41517639 C-1.13639269 27.54818653 -1.13454385 25.68119431 -1.13037109 23.81420898 C-1.1250154 20.94574712 -1.13032199 18.07744139 -1.13671875 15.20898438 C-1.13605808 13.39843715 -1.13477715 11.58789003 -1.1328125 9.77734375 C-1.13483673 8.91382797 -1.13686096 8.05031219 -1.13894653 7.16062927 C-1.11495439 1.11495439 -1.11495439 1.11495439 0 0 Z " fill="#151515" transform="translate(46,65)"/>
<path d="M0 0 C4.62 0 9.24 0 14 0 C14.33 0.66 14.66 1.32 15 2 C10.05 2 5.1 2 0 2 C0 10.25 0 18.5 0 27 C-3.96 27 -7.92 27 -12 27 C-8.3558226 24.5705484 -6.28758728 24.83820425 -2 25 C-2.02320313 23.78183594 -2.04640625 22.56367187 -2.0703125 21.30859375 C-2.0890835 19.68490201 -2.10728227 18.06120358 -2.125 16.4375 C-2.14175781 15.63763672 -2.15851563 14.83777344 -2.17578125 14.01367188 C-2.21723982 8.93499665 -1.64056075 4.81188094 0 0 Z " fill="#1A1A1A" transform="translate(376,74)"/>
<path d="M0 0 C3.3 0.99 6.6 1.98 10 3 C10 3.33 10 3.66 10 4 C6.7 3.67 3.4 3.34 0 3 C0 7.62 0 12.24 0 17 C-0.66 17 -1.32 17 -2 17 C-4.11626861 13.5610635 -4.47116864 11.0049334 -4 7 C-2.84406808 4.50218189 -1.49052733 2.32894896 0 0 Z " fill="#1C1C1C" transform="translate(101,81)"/>
<path d="M0 0 C1.32 0 2.64 0 4 0 C2.47987323 5.40489519 -1.27385218 8.98492628 -5 13 C-5.66 12.34 -6.32 11.68 -7 11 C-7.99 11 -8.98 11 -10 11 C-9.52949219 10.54109375 -9.05898437 10.0821875 -8.57421875 9.609375 C-4.68192818 5.81155238 -4.68192818 5.81155238 -1.3125 1.5625 C-0.6628125 0.7890625 -0.6628125 0.7890625 0 0 Z " fill="#151515" transform="translate(162,32)"/>
<path d="M0 0 C0.66 0 1.32 0 2 0 C2.99 6.93 3.98 13.86 5 21 C4.34 21 3.68 21 3 21 C3 20.34 3 19.68 3 19 C2.34 19 1.68 19 1 19 C0.03794912 12.62641289 -0.10655578 6.44070471 0 0 Z " fill="#141414" transform="translate(248,78)"/>
<path d="M0 0 C4.29 0 8.58 0 13 0 C13 0.66 13 1.32 13 2 C9.04 2 5.08 2 1 2 C1.33 4.97 1.66 7.94 2 11 C0.68 11 -0.64 11 -2 11 C-2 8.36 -2 5.72 -2 3 C-1.34 3 -0.68 3 0 3 C0 2.01 0 1.02 0 0 Z " fill="#1D1D1D" transform="translate(345,42)"/>
<path d="M0 0 C1.93719378 -0.05406122 3.87481921 -0.09282025 5.8125 -0.125 C6.89144531 -0.14820312 7.97039062 -0.17140625 9.08203125 -0.1953125 C12 0 12 0 15 2 C10.38 2 5.76 2 1 2 C1 4.64 1 7.28 1 10 C0.01 10.495 0.01 10.495 -1 11 C-1.86516528 6.50114053 -2.30903272 3.98352209 0 0 Z " fill="#171717" transform="translate(157,73)"/>
<path d="M0 0 C0.33 4.29 0.66 8.58 1 13 C0.01 13.495 0.01 13.495 -1 14 C-1.66 13.67 -2.32 13.34 -3 13 C-3 9.04 -3 5.08 -3 1 C-1 0 -1 0 0 0 Z " fill="#141414" transform="translate(80,63)"/>
<path d="M0 0 C0.99 1.32 1.98 2.64 3 4 C-2.61 4 -8.22 4 -14 4 C-9.16603699 0.37452774 -6.05770189 -0.64443637 0 0 Z " fill="#343434" transform="translate(106,46)"/>
<path d="M0 0 C0.98226563 0.00644531 1.96453125 0.01289062 2.9765625 0.01953125 C5.375 0.1875 5.375 0.1875 6.375 1.1875 C6.44679964 2.70678038 6.45892007 4.22917482 6.4375 5.75 C6.42847656 6.57628906 6.41945313 7.40257812 6.41015625 8.25390625 C6.39855469 8.89199219 6.38695312 9.53007813 6.375 10.1875 C5.715 9.8575 5.055 9.5275 4.375 9.1875 C4.375 6.8775 4.375 4.5675 4.375 2.1875 C0.085 2.1875 -4.205 2.1875 -8.625 2.1875 C-5.23250652 -0.07416232 -3.97298499 -0.05765545 0 0 Z " fill="#1C1C1C" transform="translate(413.625,41.8125)"/>
<path d="M0 0 C1.65 0 3.3 0 5 0 C4.44894091 3.9492568 3.61064629 7.34920174 2 11 C1.34 11 0.68 11 0 11 C0 7.37 0 3.74 0 0 Z " fill="#232323" transform="translate(92,60)"/>
<path d="M0 0 C1.65 0 3.3 0 5 0 C5 4.29 5 8.58 5 13 C3.35 13.33 1.7 13.66 0 14 C0.33 13.34 0.66 12.68 1 12 C1.66 12 2.32 12 3 12 C3 8.7 3 5.4 3 2 C1.68 1.67 0.36 1.34 -1 1 C-0.67 0.67 -0.34 0.34 0 0 Z " fill="#1E1E1E" transform="translate(27,75)"/>
<path d="M0 0 C9.41002278 -0.3690205 9.41002278 -0.3690205 14 2 C14 4.97 14 7.94 14 11 C13.67 11 13.34 11 13 11 C13 8.69 13 6.38 13 4 C8.71 3.34 4.42 2.68 0 2 C0 1.34 0 0.68 0 0 Z " fill="#272727" transform="translate(222,75)"/>
<path d="M0 0 C3.87132028 0.57352893 6.08172796 2.48704352 9 5 C10.65 4.34 12.3 3.68 14 3 C9 9.57142857 9 9.57142857 4 11 C4.99 9.02 5.98 7.04 7 5 C6.21625 4.731875 5.4325 4.46375 4.625 4.1875 C2 3 2 3 0 0 Z " fill="#1A1A1A" transform="translate(372,53)"/>
<path d="M0 0 C-0.99 0.66 -1.98 1.32 -3 2 C-3.33 1.67 -3.66 1.34 -4 1 C-6.18292774 0.76518307 -8.37203174 0.58636677 -10.5625 0.4375 C-12.35880859 0.31181641 -12.35880859 0.31181641 -14.19140625 0.18359375 C-15.11824219 0.12300781 -16.04507812 0.06242187 -17 0 C-17 1.65 -17 3.3 -17 5 C-17.66 4.67 -18.32 4.34 -19 4 C-19 3.01 -19 2.02 -19 1 C-19.66 0.67 -20.32 0.34 -21 0 C-16.73282197 -4.26717803 -5.13317248 -2.02939377 0 0 Z " fill="#151515" transform="translate(300,68)"/>
<path d="M0 0 C3.0390625 0.0234375 3.0390625 0.0234375 6.625 0.375 C7.81351563 0.48585938 9.00203125 0.59671875 10.2265625 0.7109375 C11.14179688 0.80632812 12.05703125 0.90171875 13 1 C13 1.33 13 1.66 13 2 C9.04 2 5.08 2 1 2 C1.66 5.3 2.32 8.6 3 12 C2.34 12 1.68 12 1 12 C0.92652344 11.04287109 0.92652344 11.04287109 0.8515625 10.06640625 C0.77679688 9.24011719 0.70203125 8.41382812 0.625 7.5625 C0.55539063 6.73878906 0.48578125 5.91507812 0.4140625 5.06640625 C0.27742187 4.38449219 0.14078125 3.70257813 0 3 C-0.66 2.67 -1.32 2.34 -2 2 C-1.34 1.34 -0.68 0.68 0 0 Z " fill="#141414" transform="translate(178,99)"/>
<path d="M0 0 C0 0.99 0 1.98 0 3 C-2.64 3.33 -5.28 3.66 -8 4 C-7.67 6.97 -7.34 9.94 -7 13 C-7.66 13 -8.32 13 -9 13 C-9.19406478 11.35492782 -9.38007935 9.70890406 -9.5625 8.0625 C-9.66691406 7.14597656 -9.77132812 6.22945313 -9.87890625 5.28515625 C-9.91886719 4.53105469 -9.95882812 3.77695313 -10 3 C-8.18808118 1.18808118 -5.27648701 1.5276487 -2.8125 1.28125 C-0.9832467 1.18001957 -0.9832467 1.18001957 0 0 Z " fill="#111111" transform="translate(227,61)"/>
<path d="M0 0 C2.00293347 3.00440021 2.49271626 4.70993945 3.125 8.1875 C3.29257813 9.08855469 3.46015625 9.98960938 3.6328125 10.91796875 C3.75398438 11.60503906 3.87515625 12.29210938 4 13 C1 12 1 12 -0.1875 10.3125 C-1.2048517 7.41696054 -1.19886794 5.04930835 -1 2 C-0.67 1.34 -0.34 0.68 0 0 Z " fill="#1F1F1F" transform="translate(93,33)"/>
<path d="M0 0 C2.21462674 1.06630176 4.29416167 2.18578632 6.375 3.5 C9.17842779 5.10195874 11.9161732 6.06768027 15 7 C15 7.33 15 7.66 15 8 C11.62148386 8.28524057 8.36838529 8.44621582 5 8 C3 5.6875 3 5.6875 2 3 C1.34 2.01 0.68 1.02 0 0 Z " fill="#1B1B1B" transform="translate(115,93)"/>
<path d="M0 0 C0.66 0 1.32 0 2 0 C2 1.65 2 3.3 2 5 C5.3 5 8.6 5 12 5 C11.67 5.66 11.34 6.32 11 7 C9.35425434 7.02688151 7.70838587 7.04634123 6.0625 7.0625 C5.14597656 7.07410156 4.22945313 7.08570313 3.28515625 7.09765625 C1 7 1 7 0 6 C-0.04080783 4.00041636 -0.04254356 1.99954746 0 0 Z " fill="#131313" transform="translate(68,23)"/>
<path d="M0 0 C1 1 1 1 1.0625 4.0625 C1.041875 5.031875 1.02125 6.00125 1 7 C2.32 7.33 3.64 7.66 5 8 C3.35 8 1.7 8 0 8 C0 6.02 0 4.04 0 2 C-2.97 2 -5.94 2 -9 2 C-6.99988787 -2.00022427 -3.70043292 -0.97379814 0 0 Z " fill="#141414" transform="translate(186,66)"/>
<path d="M0 0 C1.98 0.495 1.98 0.495 4 1 C4 4.63 4 8.26 4 12 C3.01 12 2.02 12 1 12 C1.03480469 11.06027344 1.03480469 11.06027344 1.0703125 10.1015625 C1.08835937 9.28429688 1.10640625 8.46703125 1.125 7.625 C1.14820313 6.81289063 1.17140625 6.00078125 1.1953125 5.1640625 C1.21370051 2.78657757 1.21370051 2.78657757 -1 1 C-0.67 0.67 -0.34 0.34 0 0 Z " fill="#1E1E1E" transform="translate(28,54)"/>
<path d="M0 0 C3.45925163 1.2491742 6.14693203 2.67527795 9 5 C8.67 5.66 8.34 6.32 8 7 C7.34 6.67 6.68 6.34 6 6 C3.9625237 5.77141886 1.91959697 5.58975722 -0.125 5.4375 C-1.76855469 5.31181641 -1.76855469 5.31181641 -3.4453125 5.18359375 C-4.28835937 5.12300781 -5.13140625 5.06242187 -6 5 C-6 4.67 -6 4.34 -6 4 C-3.69 3.34 -1.38 2.68 1 2 C0.67 1.34 0.34 0.68 0 0 Z " fill="#191919" transform="translate(156,48)"/>
<path d="M0 0 C0.99 0 1.98 0 3 0 C3 4.62 3 9.24 3 14 C2.34 14 1.68 14 1 14 C0.67 9.38 0.34 4.76 0 0 Z " fill="#232323" transform="translate(29,99)"/>
<path d="M0 0 C1.66611905 -0.042721 3.33382885 -0.04063832 5 0 C6 1 6 1 6.09765625 3.50390625 C6.08605469 4.51324219 6.07445312 5.52257812 6.0625 6.5625 C6.05347656 7.57441406 6.04445313 8.58632812 6.03515625 9.62890625 C6.02355469 10.41136719 6.01195312 11.19382812 6 12 C5.34 12 4.68 12 4 12 C4 8.7 4 5.4 4 2 C2.68 1.67 1.36 1.34 0 1 C0 0.67 0 0.34 0 0 Z " fill="#171717" transform="translate(416,99)"/>
<path d="M0 0 C3.38115651 -0.29036649 6.62919149 -0.44908891 10 0 C12.625 2.5 12.625 2.5 14 5 C13.67 5.66 13.34 6.32 13 7 C12.175 6.154375 11.35 5.30875 10.5 4.4375 C8.48656119 2.72270522 7.48872355 2.02452376 4.8203125 1.890625 C2.86309607 2.15530196 0.92721531 2.56803795 -1 3 C-0.67 2.01 -0.34 1.02 0 0 Z " fill="#0E0E0E" transform="translate(59,104)"/>
<path d="M0 0 C2.01822917 0.06510417 4.03645833 0.13020833 6.0546875 0.1953125 C4.8688638 3.57034919 3.77895061 5.84253981 1.0546875 8.1953125 C0.3946875 7.8653125 -0.2653125 7.5353125 -0.9453125 7.1953125 C0.3746875 5.8753125 1.6946875 4.5553125 3.0546875 3.1953125 C0.7446875 2.8653125 -1.5653125 2.5353125 -3.9453125 2.1953125 C-1.9453125 0.1953125 -1.9453125 0.1953125 0 0 Z " fill="#0E0E0E" transform="translate(348.9453125,51.8046875)"/>
<path d="M0 0 C0.66 0 1.32 0 2 0 C2.04254356 1.99954746 2.04080783 4.00041636 2 6 C1 7 1 7 -1.06640625 7.09765625 C-1.89011719 7.08605469 -2.71382812 7.07445312 -3.5625 7.0625 C-4.38878906 7.05347656 -5.21507812 7.04445313 -6.06640625 7.03515625 C-6.70449219 7.02355469 -7.34257813 7.01195312 -8 7 C-7.67 6.34 -7.34 5.68 -7 5 C-4.69 5 -2.38 5 0 5 C0 3.35 0 1.7 0 0 Z " fill="#141414" transform="translate(55,23)"/>
<path d="M0 0 C0.66 0 1.32 0 2 0 C2 2.64 2 5.28 2 8 C0.35 8.33 -1.3 8.66 -3 9 C-2.01 6.03 -1.02 3.06 0 0 Z " fill="#212121" transform="translate(336,102)"/>
<path d="M0 0 C0.66 0 1.32 0 2 0 C2.02688151 1.64574566 2.04634123 3.29161413 2.0625 4.9375 C2.07410156 5.85402344 2.08570313 6.77054688 2.09765625 7.71484375 C2 10 2 10 1 11 C-0.66617115 11.04063832 -2.33388095 11.042721 -4 11 C-3.01 10.34 -2.02 9.68 -1 9 C-0.42006301 6.80545319 -0.42006301 6.80545319 -0.3125 4.375 C-0.21388672 3.14910156 -0.21388672 3.14910156 -0.11328125 1.8984375 C-0.05720703 0.95871094 -0.05720703 0.95871094 0 0 Z " fill="#262626" transform="translate(30,35)"/>
<path d="M0 0 C0 0.66 0 1.32 0 2 C-3.96 2 -7.92 2 -12 2 C-12 1.34 -12 0.68 -12 0 C-10.37585622 -0.19477739 -8.75063577 -0.38059458 -7.125 -0.5625 C-6.22007812 -0.66691406 -5.31515625 -0.77132812 -4.3828125 -0.87890625 C-2 -1 -2 -1 0 0 Z " fill="#242424" transform="translate(350,99)"/>
<path d="M0 0 C1.32 0 2.64 0 4 0 C3.44894091 3.9492568 2.61064629 7.34920174 1 11 C0.34 10.67 -0.32 10.34 -1 10 C-0.67 8.02 -0.34 6.04 0 4 C0.66 4 1.32 4 2 4 C2 3.01 2 2.02 2 1 C1.34 0.67 0.68 0.34 0 0 Z " fill="#1B1B1B" transform="translate(146,63)"/>
<path d="M0 0 C2.54080889 2.9826887 3.2802322 5.19551307 4 9 C4.66 9.33 5.32 9.66 6 10 C4.68 10 3.36 10 2 10 C0.68373308 6.38026598 0 3.90432869 0 0 Z " fill="#1A1A1A" transform="translate(261,63)"/>
<path d="M0 0 C0.66 0 1.32 0 2 0 C2.22036864 3.85645121 1.60355101 6.49223216 0 10 C-0.33 10 -0.66 10 -1 10 C-1.02689216 8.52093108 -1.04634621 7.04172517 -1.0625 5.5625 C-1.07410156 4.73878906 -1.08570313 3.91507812 -1.09765625 3.06640625 C-1 1 -1 1 0 0 Z " fill="#0B0B0B" transform="translate(46,65)"/>
<path d="M0 0 C2.31 0 4.62 0 7 0 C6.67 1.32 6.34 2.64 6 4 C3.69 3.34 1.38 2.68 -1 2 C-0.67 1.34 -0.34 0.68 0 0 Z " fill="#0C0C0C" transform="translate(381,52)"/>
<path d="M0 0 C3.875 1.75 3.875 1.75 5 4 C1.7 4 -1.6 4 -5 4 C-3.68 3.34 -2.36 2.68 -1 2 C-0.67 1.34 -0.34 0.68 0 0 Z " fill="#151515" transform="translate(126,49)"/>
<path d="M0 0 C0.66 0 1.32 0 2 0 C3.6875 2.375 3.6875 2.375 5 5 C4.67 5.66 4.34 6.32 4 7 C3.01 6.67 2.02 6.34 1 6 C0.67 4.02 0.34 2.04 0 0 Z " fill="#161616" transform="translate(342,66)"/>
<path d="M0 0 C1.32 0.33 2.64 0.66 4 1 C3.67 1.99 3.34 2.98 3 4 C3.33 4.66 3.66 5.32 4 6 C2.68 5.67 1.36 5.34 0 5 C0 3.35 0 1.7 0 0 Z " fill="#171717" transform="translate(111,87)"/>
</svg>
